#define uparrow_width 20
#define uparrow_height 20
const unsigned char uparrow_bits[] PROGMEM = {
   0xfc, 0xff, 0x03, 0x02, 0x00, 0x04, 0x01, 0x00, 0x08, 0x01, 0x00, 0x08,
   0x01, 0x06, 0x08, 0x01, 0x0f, 0x08, 0x01, 0x0f, 0x08, 0x81, 0x1f, 0x08,
   0x81, 0x1f, 0x08, 0xc1, 0x3f, 0x08, 0xc1, 0x3f, 0x08, 0xe1, 0x7f, 0x08,
   0xe1, 0x7f, 0x08, 0xf1, 0xff, 0x08, 0xf1, 0xff, 0x08, 0xf9, 0xff, 0x09,
   0x01, 0x00, 0x08, 0x01, 0x00, 0x08, 0x02, 0x00, 0x04, 0xfc, 0xff, 0x03 };
